:SAMPLES-PER-SECOND 30
:FULLY-SPECIFIED
:DEGREES
223
root  64.4623 36.1866 1.4614 40.5603 6.01777 -1.83335
RightUpLeg  -79.2082 -24.666 23.0772
RightLeg  26.8286 4.4496 2.21734
RightFoot  8.64595 0.498576 -2.49057
RightToes  0.00048216 0.542163 -0.142577
Spine  69.8324 -3.69666 5.01611
Spine1  11.0212 3.58449 -9.80592
HEad  -33.2723 -7.92885 -0.207975
LeftShoulder1  -0.649206 -20.3306 12.714
LeftArm  -79.3694 -49.0266 25.3966
LeftForeArm  -32.1981 -4.11792 7.26132
LeftHand  -0.25398 0.0180481 5.50724
RightShoulder  0.559547 10.191 -4.93226
RightArm  -88.5216 55.1086 -21.9908
RightForeArm  -24.2081 18.7414 3.86652
RightHand  0.645665 11.259 3.93553
LeftUpLeg  -83.3411 27.3726 -36.496
LeftLeg  37.7455 -1.69277 -1.02315
LeftFoot  -5.97555 -0.400299 9.28264
LeftToes  1.06244e-005 4.65856e-005 -8.18505e-006
224
root  64.8688 36.1075 1.61068 40.815 5.96265 -2.1837
RightUpLeg  -79.2923 -24.7566 22.5542
RightLeg  27.0474 4.39169 2.20718
RightFoot  8.7003 0.332936 -1.54486
RightToes  0.00048216 0.542163 -0.142577
Spine  70.3113 -3.83177 5.24588
Spine1  10.7087 3.67614 -9.79061
HEad  -33.0083 -8.07053 0.372554
LeftShoulder1  -0.705419 -20.5887 12.9215
LeftArm  -79.2681 -48.3686 25.0038
LeftForeArm  -31.652 -4.8059 7.32346
LeftHand  -0.25398 0.0180481 5.50724
RightShoulder  0.635561 9.92229 -4.15123
RightArm  -88.9106 55.2961 -21.6653
RightForeArm  -22.336 20.3744 4.73767
RightHand  0.48043 11.2752 2.78457
LeftUpLeg  -83.8793 27.2922 -37.025
LeftLeg  38.7624 -1.54718 -0.944491
LeftFoot  -6.78002 -0.349502 9.774
LeftToes  1.06244e-005 4.65856e-005 -8.18505e-006
225
root  65.1892 36.0794 1.75861 40.9602 6.02821 -2.57308
RightUpLeg  -79.1433 -24.9153 22.4476
RightLeg  26.9338 4.3124 2.1524
RightFoot  8.76278 0.239205 -1.00875
RightToes  0.00048216 0.542163 -0.142577
Spine  70.693 -3.81423 5.81637
Spine1  10.2871 4.19264 -9.89701
HEad  -32.6048 -8.77139 1.23903
LeftShoulder1  -0.934963 -22.1522 13.7503
LeftArm  -78.7181 -47.6209 24.1275
LeftForeArm  -30.8898 -5.04777 7.42916
LeftHand  -0.25398 0.0180481 5.50724
RightShoulder  0.784084 9.11697 -2.49515
RightArm  -88.5519 55.5824 -21.1253
RightForeArm  -20.7511 22.2589 5.57531
RightHand  0.291978 10.9103 1.52797
LeftUpLeg  -84.2451 27.3143 -37.2888
LeftLeg  39.5245 -1.54979 -0.979186
LeftFoot  -7.35515 -0.313412 10.2543
LeftToes  1.06244e-005 4.65856e-005 -8.18505e-006
226
root  65.4334 36.0703 1.90562 41.0734 6.15649 -2.82361
RightUpLeg  -78.913 -25.0713 22.1859
RightLeg  26.8471 4.25013 2.10999
RightFoot  8.72286 0.16062 -0.568274
RightToes  0.00048216 0.542163 -0.142577
Spine  70.5689 -3.5997 5.31861
Spine1  10.9575 3.65038 -8.59863
HEad  -32.9702 -7.65296 0.932978
LeftShoulder1  -0.410027 -21.3592 11.4957
LeftArm  -78.9861 -47.4468 26.0919
LeftForeArm  -30.5225 -4.83049 7.10218
LeftHand  -0.25398 0.0180481 5.50724
RightShoulder  0.548653 9.51472 -4.78462
RightArm  -89.6657 55.9984 -17.959
RightForeArm  -18.0949 23.8853 5.97689
RightHand  0.0693541 10.383 -0.0189016
LeftUpLeg  -84.3528 27.2549 -37.3531
LeftLeg  40.1043 -1.49856 -0.957883
LeftFoot  -8.06214 -0.257377 10.6568
LeftToes  1.06244e-005 4.65856e-005 -8.18505e-006
227
root  65.618 36.0539 2.03982 41.0812 6.2673 -2.94822
RightUpLeg  -78.6383 -25.1649 21.5896
RightLeg  27.0183 4.0575 2.01967
RightFoot  8.6213 0.058014 0.00735688
RightToes  0.00048216 0.542163 -0.142577
Spine  70.5058 -3.60938 5.44634
Spine1  10.9198 3.80711 -8.6882
HEad  -32.8654 -7.93663 1.44951
LeftShoulder1  -0.457386 -22.0513 11.6398
LeftArm  -78.9626 -47.3513 25.5315
LeftForeArm  -28.9527 -4.93564 7.23692
LeftHand  -0.25398 0.0180481 5.50724
RightShoulder  0.694589 9.6061 -3.54194
RightArm  -87.984 56.3665 -17.2837
RightForeArm  -17.655 24.4603 6.08373
RightHand  -0.136198 10.2599 -1.53104
LeftUpLeg  -84.2349 27.2183 -37.3858
LeftLeg  40.4925 -1.30767 -0.799367
LeftFoot  -8.66267 -0.203586 10.9058
LeftToes  1.06244e-005 4.65856e-005 -8.18505e-006
228
root  65.7533 36.0385 2.15343 40.951 6.38592 -3.06634
RightUpLeg  -78.2561 -25.199 20.9331
RightLeg  27.2849 3.65159 1.81699
RightFoot  8.50174 -0.0387402 0.555659
RightToes  0.00048216 0.542163 -0.142577
Spine  70.4777 -3.67707 5.6135
Spine1  10.5897 4.00769 -9.08613
HEad  -32.6243 -8.40629 1.96607
LeftShoulder1  -0.53407 -22.9465 11.8934
LeftArm  -78.7084 -47.34 24.2516
LeftForeArm  -27.6427 -5.48215 7.31056
LeftHand  -0.25398 0.0180481 5.50724
RightShoulder  0.938756 9.87406 -1.55643
RightArm  -85.0762 56.8759 -17.2267
RightForeArm  -17.664 24.001 5.9764
RightHand  -0.227939 10.5134 -2.19026
LeftUpLeg  -84.0119 27.2639 -37.308
LeftLeg  40.7752 -1.0755 -0.594645
LeftFoot  -9.0589 -0.166068 11.0434
LeftToes  1.06244e-005 4.65856e-005 -8.18505e-006
229
root  65.8418 36.0377 2.25184 40.7014 6.60629 -3.19643
RightUpLeg  -77.7013 -25.2407 20.3202
RightLeg  27.4992 3.17005 1.56268
RightFoot  8.28333 -0.111064 0.971456
RightToes  0.00048216 0.542163 -0.142577
Spine  70.1624 -3.65173 5.06274
Spine1  11.2366 3.3899 -8.39421
HEad  -33.1668 -7.19928 1.71559
LeftShoulder1  -0.0787405 -21.9186 9.97093
LeftArm  -78.9705 -47.5422 25.0381
LeftForeArm  -27.3603 -5.94226 7.022
LeftHand  -0.25398 0.0180481 5.50724
RightShoulder  0.828215 10.7598 -2.96903
RightArm  -83.3471 57.5967 -15.047
RightForeArm  -16.6365 23.3175 5.7621
RightHand  -0.22309 10.6514 -2.14141
LeftUpLeg  -83.6943 27.3155 -36.9379
LeftLeg  41.0895 -0.875696 -0.416851
LeftFoot  -9.40309 -0.130991 11.0587
LeftToes  1.06244e-005 4.65856e-005 -8.18505e-006
